Coordinates
version=1
nRows=41
nColumns=38
inDegrees=no

Units are S.I. units (second, meters, Newtons, ...)
If the header above contains a line with 'inDegrees', this indicates whether rotational values are in degrees (yes) or radians (no).

endheader
time	pelvis_tilt	pelvis_list	pelvis_rotation	pelvis_tx	pelvis_ty	pelvis_tz	hip_flexion_r	hip_adduction_r	hip_rotation_r	knee_angle_r	ankle_angle_r	subtalar_angle_r	mtp_angle_r	hip_flexion_l	hip_adduction_l	hip_rotation_l	knee_angle_l	ankle_angle_l	subtalar_angle_l	mtp_angle_l	lumbar_extension	lumbar_bending	lumbar_rotation	arm_flex_r	arm_add_r	arm_rot_r	elbow_flex_r	pro_sup_r	wrist_flex_r	wrist_dev_r	arm_flex_l	arm_add_l	arm_rot_l	elbow_flex_l	pro_sup_l	wrist_flex_l	wrist_dev_l
0.55	3.11911	1.50899	-1.78833	0.556818	0.249375	1.00317	-0.344116	-0.0511135	0.0236236	0.272867	-0.22153	0	0	0.404189	-0.116578	-0.329019	0.737565	-0.126151	0	0	-0.257866	-0.0460306	0.213638	-0.195538	-0.300071	0.382711	0.498525	0.87875	0	0	0.00200084	-0.314803	0.773129	0.267257	1.25187	0	0
0.56	-3.0639	1.51184	-1.8823	0.555601	0.262353	1.00371	-0.318836	-0.060162	0.0223893	0.333348	-0.240546	0	0	0.403291	-0.108706	-0.332598	0.748142	-0.128751	0	0	-0.248353	-0.0537409	0.205763	-0.197076	-0.295779	0.383034	0.495515	0.878256	0	0	0.0121779	-0.320162	0.782565	0.261426	1.25141	0	0
0.57	-2.93867	1.51765	-2.0014	0.55442	0.275258	1.00389	-0.285653	-0.0679671	0.0241863	0.398567	-0.265402	0	0	0.403453	-0.101324	-0.336343	0.754246	-0.130427	0	0	-0.234086	-0.0605769	0.197786	-0.199266	-0.292265	0.385268	0.493054	0.877722	0	0	0.0212688	-0.326148	0.789916	0.25716	1.25161	0	0
0.58	-2.67261	1.52988	-2.26185	0.553287	0.288078	1.00329	-0.236617	-0.0749301	0.0296251	0.474318	-0.293734	0	0	0.411564	-0.0933407	-0.336995	0.757353	-0.129546	0	0	-0.210266	-0.0679805	0.179009	-0.187064	-0.296877	0.444232	0.483383	0.82659	0	0	0.0163576	-0.328123	0.707217	0.254296	1.3377	0	0
0.59	-2.35939	1.53442	-2.56928	0.552272	0.300398	1.0029	-0.196321	-0.080825	0.0465784	0.539106	-0.336981	0	0	0.412949	-0.085422	-0.339475	0.758372	-0.126487	0	0	-0.189715	-0.0740887	0.177245	-0.201154	-0.287803	0.400786	0.488069	0.870324	0	0	0.0315156	-0.339398	0.770557	0.254022	1.28246	0	0
0.6	-2.0491	1.53405	-2.87338	0.551253	0.312386	1.00275	-0.155803	-0.0848575	0.0608785	0.604771	-0.362463	0	0	0.411877	-0.0770408	-0.343008	0.758156	-0.12353	0	0	-0.175203	-0.0812555	0.166138	-0.202403	-0.291206	0.416206	0.495544	0.848677	0	0	0.0372459	-0.347665	0.748784	0.258726	1.30848	0	0
0.61	-1.76492	1.52938	3.13246	0.550276	0.324058	1.00253	-0.111509	-0.0886172	0.0679675	0.673245	-0.400696	0	0	0.411239	-0.0672225	-0.34691	0.757816	-0.120066	0	0	-0.159666	-0.0892342	0.158029	-0.209627	-0.289532	0.403359	0.504636	0.857972	0	0	0.0478598	-0.358804	0.763377	0.264492	1.29798	0	0
0.62	-1.54932	1.52207	2.92361	0.549326	0.335279	1.00226	-0.0652291	-0.0912439	0.0812068	0.742509	-0.443955	0	0	0.411261	-0.0568483	-0.348854	0.75806	-0.116371	0	0	-0.145158	-0.0973554	0.150451	-0.217736	-0.28843	0.38707	0.516739	0.868746	0	0	0.0594405	-0.370875	0.777272	0.272975	1.28544	0	0
0.63	-1.35976	1.51253	2.7404	0.548369	0.346312	1.00185	-0.014092	-0.0928097	0.0935664	0.812139	-0.47262	0	0	0.413544	-0.0459563	-0.348403	0.758482	-0.109846	0	0	-0.130653	-0.105973	0.130169	-0.210469	-0.296813	0.422722	0.52448	0.839536	0	0	0.0537924	-0.380591	0.696129	0.289317	1.35189	0	0
0.64	-1.32423	1.50359	2.71062	0.547585	0.356845	1.00158	0.0311315	-0.0958064	0.101949	0.881484	-0.506553	0	0	0.40835	-0.0345528	-0.349621	0.759451	-0.101066	0	0	-0.121351	-0.114054	0.144195	-0.246001	-0.280554	0.310855	0.552346	0.930969	0	0	0.0926782	-0.399257	0.842222	0.297962	1.22048	0	0
0.65	-1.3441	1.49817	2.7368	0.546704	0.367385	1.00205	0.0676653	-0.0970863	0.106471	0.939479	-0.503283	0	0	0.396972	-0.0245666	-0.349888	0.757743	-0.0963178	0	0	-0.120953	-0.121153	0.138135	-0.25311	-0.284198	0.30248	0.570628	0.930414	0	0	0.108172	-0.411956	0.845152	0.312658	1.21882	0	0
0.66	-1.3779	1.49404	2.77658	0.545902	0.377764	1.00273	0.102041	-0.097674	0.108928	0.993321	-0.489581	0	0	0.383372	-0.0153353	-0.348871	0.754702	-0.09193	0	0	-0.122744	-0.127331	0.132179	-0.259218	-0.288754	0.295738	0.588689	0.927669	0	0	0.123986	-0.424784	0.847131	0.328332	1.21921	0	0
0.67	-1.4192	1.49154	2.82337	0.545186	0.387977	1.00362	0.134262	-0.0968178	0.109974	1.0414	-0.476661	0	0	0.367928	-0.00776438	-0.34772	0.750529	-0.0884801	0	0	-0.126053	-0.131965	0.126386	-0.26362	-0.29418	0.292544	0.604881	0.924063	0	0	0.140335	-0.436635	0.847666	0.343002	1.22088	0	0
0.68	-1.46037	1.49061	2.86948	0.544534	0.398015	1.00461	0.16535	-0.0945723	0.109826	1.08404	-0.466857	0	0	0.351661	-0.00221096	-0.346743	0.745902	-0.08563	0	0	-0.130125	-0.134756	0.121043	-0.266152	-0.300191	0.293004	0.618443	0.919363	0	0	0.157199	-0.447273	0.846473	0.356299	1.22499	0	0
0.69	-1.50072	1.49147	2.91458	0.543935	0.407892	1.00573	0.195062	-0.0905701	0.108687	1.11975	-0.462399	0	0	0.334971	0.000987017	-0.346115	0.741273	-0.083914	0	0	-0.134305	-0.135425	0.115336	-0.266133	-0.306613	0.297219	0.628239	0.913527	0	0	0.173909	-0.456092	0.843442	0.366489	1.23252	0	0
0.7	-1.53019	1.4916	2.94841	0.543507	0.417444	1.00648	0.228055	-0.0872417	0.106853	1.15832	-0.420409	0	0	0.320017	0.00449908	-0.344681	0.73768	-0.0766063	0	0	-0.135883	-0.136926	0.127651	-0.283701	-0.29963	0.249699	0.641951	0.950109	0	0	0.21847	-0.466473	0.951253	0.370887	1.15348	0	0
0.71	-1.54129	1.49323	2.964	0.543019	0.426958	1.00741	0.260343	-0.0822797	0.104259	1.18712	-0.408868	0	0	0.30608	0.00595277	-0.343989	0.73349	-0.0730267	0	0	-0.138361	-0.136273	0.125079	-0.284978	-0.304378	0.249396	0.650019	0.946808	0	0	0.239369	-0.474283	0.957647	0.380326	1.15752	0	0
0.72	-1.54388	1.49522	2.97032	0.542672	0.43647	1.00833	0.292544	-0.076537	0.102157	1.20984	-0.399562	0	0	0.292223	0.00631435	-0.345219	0.728723	-0.0696693	0	0	-0.139868	-0.135213	0.123065	-0.285389	-0.309031	0.250784	0.656062	0.942809	0	0	0.259672	-0.481397	0.962435	0.388774	1.16394	0	0
0.73	-1.55012	1.49768	2.98109	0.542354	0.445941	1.0093	0.322701	-0.0702481	0.0993657	1.2272	-0.391757	0	0	0.277863	0.00640743	-0.345739	0.723656	-0.0666446	0	0	-0.141762	-0.13365	0.119888	-0.284721	-0.313374	0.253767	0.660332	0.938039	0	0	0.279383	-0.488126	0.965166	0.396569	1.17241	0	0
0.74	-1.55668	1.50032	2.99274	0.542055	0.455331	1.0103	0.351659	-0.0637962	0.0958669	1.23821	-0.387599	0	0	0.263528	0.00643881	-0.345476	0.718507	-0.0646127	0	0	-0.14363	-0.131698	0.115427	-0.282938	-0.31787	0.25891	0.663247	0.932783	0	0	0.298027	-0.494204	0.964544	0.403377	1.18218	0	0
0.75	-1.56306	1.50261	3.00444	0.541807	0.464641	1.01122	0.379474	-0.0579161	0.091693	1.24497	-0.38138	0	0	0.249237	0.00694037	-0.34429	0.712875	-0.0616689	0	0	-0.145124	-0.130147	0.116562	-0.286534	-0.317132	0.247707	0.666119	0.943461	0	0	0.326555	-0.498695	0.997973	0.406368	1.168	0	0
0.76	-1.56924	1.50492	3.01613	0.541555	0.473955	1.01212	0.405555	-0.0523642	0.0869532	1.24691	-0.372062	0	0	0.234803	0.00756593	-0.342267	0.706408	-0.0585303	0	0	-0.146559	-0.12844	0.117748	-0.29006	-0.316294	0.237779	0.668411	0.951544	0	0	0.355116	-0.502218	1.03071	0.408784	1.15709	0	0
0.77	-1.58576	1.50721	3.03832	0.54132	0.483248	1.013	0.429876	-0.0469142	0.0821766	1.24568	-0.332845	0	0	0.219433	0.00878047	-0.338104	0.698597	-0.0532938	0	0	-0.149343	-0.126881	0.121923	-0.294632	-0.316826	0.231985	0.671677	0.943433	0	0	0.38726	-0.503112	1.06649	0.409107	1.15598	0	0
0.78	-1.59275	1.51007	3.05131	0.541073	0.4926	1.01383	0.453448	-0.0403355	0.0785852	1.23862	-0.319567	0	0	0.204891	0.00860056	-0.335557	0.691275	-0.0514536	0	0	-0.15137	-0.123874	0.118354	-0.294199	-0.31979	0.235343	0.673775	0.936756	0	0	0.407073	-0.507134	1.06931	0.414744	1.16976	0	0
0.79	-1.60475	1.51338	3.07007	0.540772	0.502011	1.01465	0.475145	-0.0333787	0.0742973	1.22833	-0.30557	0	0	0.189952	0.00738233	-0.334395	0.684127	-0.0500882	0	0	-0.153518	-0.119994	0.113316	-0.293332	-0.323103	0.240654	0.675644	0.929401	0	0	0.425053	-0.511058	1.06867	0.42052	1.18436	0	0
0.8	-1.60904	1.5172	3.08147	0.540479	0.511447	1.01542	0.495275	-0.0263888	0.0685059	1.21382	-0.291488	0	0	0.175361	0.00521404	-0.333691	0.676978	-0.0489567	0	0	-0.155061	-0.115127	0.106121	-0.290923	-0.327617	0.251054	0.677044	0.917829	0	0	0.439349	-0.515518	1.05871	0.42732	1.20482	0	0
0.81	-1.62737	1.52116	3.10694	0.54026	0.520791	1.01616	0.513006	-0.0200494	0.0620912	1.19424	-0.274776	0	0	0.160064	0.00271278	-0.332601	0.669797	-0.0473324	0	0	-0.156863	-0.110304	0.107225	-0.296536	-0.323792	0.234427	0.678917	0.932494	0	0	0.468842	-0.51463	1.09969	0.425653	1.18604	0	0
0.82	-1.63862	1.52512	3.12558	0.540042	0.530199	1.0168	0.530075	-0.0144747	0.0550297	1.17098	-0.256741	0	0	0.145095	-5.61089e-05	-0.331407	0.662328	-0.0457159	0	0	-0.158284	-0.105203	0.106448	-0.30047	-0.321329	0.223675	0.680434	0.941164	0	0	0.494375	-0.514324	1.12959	0.425553	1.17555	0	0
0.83	-1.67817	1.52927	-3.10994	0.539784	0.539728	1.01752	0.543604	-0.00940255	0.0466252	1.14595	-0.193584	0	0	0.128308	-0.00309106	-0.329478	0.653507	-0.0431526	0	0	-0.161831	-0.0993219	0.101294	-0.299973	-0.325178	0.232806	0.682842	0.923433	0	0	0.510076	-0.515566	1.12007	0.429241	1.20805	0	0
0.84	-1.65863	1.53356	-3.12101	0.539555	0.549346	1.018	0.557581	-0.00426917	0.0389774	1.11601	-0.170448	0	0	0.114646	-0.00679215	-0.328313	0.645614	-0.042126	0	0	-0.161424	-0.0930932	0.0916467	-0.296144	-0.329326	0.247616	0.68213	0.908126	0	0	0.51935	-0.520598	1.10329	0.43662	1.23361	0	0
0.85	-1.57492	1.53745	3.08713	0.539339	0.559007	1.01826	0.572729	-0.000568963	0.031196	1.08314	-0.151197	0	0	0.103462	-0.010177	-0.326727	0.638049	-0.0412348	0	0	-0.158516	-0.0870238	0.0776003	-0.288396	-0.335418	0.272517	0.679541	0.887369	0	0	0.52125	-0.529825	1.07224	0.449416	1.26459	0	0
0.86	-1.48545	1.5405	3.00571	0.539205	0.568547	1.01835	0.586476	0.0012657	0.0229939	1.0472	-0.13709	0	0	0.0922336	-0.0132264	-0.326187	0.630892	-0.0403801	0	0	-0.156011	-0.0819032	0.080582	-0.296818	-0.327489	0.24821	0.679645	0.905737	0	0	0.550194	-0.523294	1.11782	0.440208	1.2438	0	0
0.87	-1.33229	1.54277	2.86056	0.539086	0.578137	1.01826	0.599789	0.00114549	0.0131931	1.00774	-0.119156	0	0	0.0825329	-0.0154714	-0.322846	0.623029	-0.0393165	0	0	-0.152003	-0.0767676	0.0803734	-0.302191	-0.321344	0.231858	0.67863	0.919996	0	0	0.573202	-0.519377	1.15133	0.434642	1.22873	0	0
0.88	-1.11516	1.54382	2.65168	0.538917	0.587761	1.01796	0.611995	-0.000623829	0.00158511	0.963769	-0.100278	0	0	0.0743872	-0.0173926	-0.317427	0.614721	-0.0382529	0	0	-0.146638	-0.0711218	0.0783432	-0.306091	-0.316093	0.218524	0.677063	0.931581	0	0	0.592606	-0.516234	1.17793	0.430124	1.2163	0	0
0.89	-0.819692	1.54243	2.36516	0.538642	0.597497	1.01747	0.62348	-0.00346743	-0.0115735	0.914453	-0.0694074	0	0	0.068775	-0.0191419	-0.308409	0.605664	-0.0354974	0	0	-0.138772	-0.0639123	0.0676084	-0.302577	-0.319031	0.231498	0.674583	0.916668	0	0	0.594736	-0.51852	1.14957	0.432039	1.25045	0	0
0.9	-0.5444	1.53872	2.09848	0.538417	0.607284	1.01681	0.632621	-0.00605612	-0.0244664	0.858945	-0.0632954	0	0	0.0643164	-0.0222499	-0.30097	0.598039	-0.033849	0	0	-0.130352	-0.0557689	0.0537468	-0.296085	-0.325208	0.254645	0.672154	0.894357	0	0	0.592034	-0.525705	1.11632	0.4403	1.27711	0	0
0.91	-0.326729	1.53218	1.88913	0.538248	0.617143	1.01595	0.640157	-0.00856525	-0.036794	0.798313	-0.0578074	0	0	0.0612733	-0.0256453	-0.293441	0.59123	-0.0319433	0	0	-0.120791	-0.0470944	0.0327631	-0.283937	-0.334461	0.289437	0.668546	0.870044	0	0	0.578749	-0.542339	1.06767	0.460628	1.29938	0	0
0.92	-0.192794	1.52712	1.76225	0.538213	0.626865	1.01501	0.642329	-0.0102664	-0.0474076	0.734071	-0.0581706	0	0	0.0553088	-0.0296709	-0.289604	0.585496	-0.0312804	0	0	-0.11548	-0.0396549	0.0407442	-0.295847	-0.325679	0.257185	0.669575	0.887641	0	0	0.605557	-0.527977	1.10971	0.441923	1.28489	0	0
0.93	-0.0854744	1.52125	1.66212	0.538202	0.636685	1.014	0.641252	-0.0112	-0.0570807	0.66476	-0.0612262	0	0	0.0492686	-0.0337376	-0.285125	0.579179	-0.0296233	0	0	-0.110151	-0.0317372	0.0424427	-0.302318	-0.318872	0.234038	0.668497	0.904708	0	0	0.623103	-0.520727	1.1366	0.432081	1.27004	0	0
0.94	-0.00968239	1.51469	1.59322	0.538286	0.646592	1.01286	0.638471	-0.0115269	-0.0637135	0.592786	-0.0691234	0	0	0.0433125	-0.0374498	-0.280954	0.572807	-0.0276238	0	0	-0.104459	-0.0239913	0.0410678	-0.305797	-0.313584	0.216652	0.666483	0.919753	0	0	0.635131	-0.517216	1.1534	0.426364	1.25737	0	0
0.95	0.0670621	1.50904	1.52362	0.538386	0.656646	1.01201	0.627432	-0.00889353	-0.0628598	0.506407	-0.120579	0	0	0.0352538	-0.0420682	-0.275874	0.564721	-0.0251547	0	0	-0.100035	-0.0142251	0.0249541	-0.294811	-0.3219	0.24511	0.661964	0.896363	0	0	0.621838	-0.52796	1.09564	0.43823	1.29662	0	0
